<svg id="visual" viewBox="0 0 3840 2160" width="3840" height="2160" xmlns="http://www.w3.org/2000/svg" xmlns:xlink="http://www.w3.org/1999/xlink" version="1.1"><path d="M0 1486L549 1567L1097 1604L1646 1541L2194 1581L2743 1495L3291 1675L3840 1479L3840 2161L3291 2161L2743 2161L2194 2161L1646 2161L1097 2161L549 2161L0 2161Z" fill="#f5730a"></path><path d="M0 1664L549 1622L1097 1742L1646 1768L2194 1659L2743 1710L3291 1715L3840 1643L3840 2161L3291 2161L2743 2161L2194 2161L1646 2161L1097 2161L549 2161L0 2161Z" fill="#d99020"></path><path d="M0 1737L549 1743L1097 1790L1646 1734L2194 1740L2743 1880L3291 1858L3840 1837L3840 2161L3291 2161L2743 2161L2194 2161L1646 2161L1097 2161L549 2161L0 2161Z" fill="#c2a344"></path><path d="M0 1926L549 1877L1097 1894L1646 1939L2194 1976L2743 1860L3291 1904L3840 1932L3840 2161L3291 2161L2743 2161L2194 2161L1646 2161L1097 2161L549 2161L0 2161Z" fill="#b2b06b"></path><path d="M0 2000L549 1977L1097 2048L1646 2014L2194 1968L2743 2066L3291 2052L3840 2001L3840 2161L3291 2161L2743 2161L2194 2161L1646 2161L1097 2161L549 2161L0 2161Z" fill="#acb992"></path></svg>