<svg id="visual" viewBox="0 0 3840 2160" width="3840" height="2160" xmlns="http://www.w3.org/2000/svg" xmlns:xlink="http://www.w3.org/1999/xlink" version="1.1"><path d="M0 352L91.5 372.2C183 392.3 366 432.7 548.8 451C731.7 469.3 914.3 465.7 1097.2 457.3C1280 449 1463 436 1645.8 419C1828.7 402 2011.3 381 2194.2 374.5C2377 368 2560 376 2742.8 378.8C2925.7 381.7 3108.3 379.3 3291.2 383.2C3474 387 3657 397 3748.5 402L3840 407L3840 0L3748.5 0C3657 0 3474 0 3291.2 0C3108.3 0 2925.7 0 2742.8 0C2560 0 2377 0 2194.2 0C2011.3 0 1828.7 0 1645.8 0C1463 0 1280 0 1097.2 0C914.3 0 731.7 0 548.8 0C366 0 183 0 91.5 0L0 0Z" fill="#362706" stroke-linecap="round" stroke-linejoin="miter"></path></svg>